<svg width="1007" height="253" viewBox="0 0 1007 253" fill="none" xmlns="http://www.w3.org/2000/svg">
<path d="M880.998 11.5889L1002 70.6915V188.897L880.998 247.999L760 188.897V70.6915L880.998 11.5889Z" fill="url(#paint0_linear_873_49)" stroke="#141D36" stroke-width="10" stroke-linejoin="round"/>
<path d="M922.082 7.5901L895.602 34.0852H866.678L840.197 7.59009C835.158 2.54825 826.539 6.11717 826.539 13.2454V179.889C826.539 184.307 830.121 187.889 834.539 187.889H927.741C932.159 187.889 935.741 184.307 935.741 179.889L935.741 75.4788V13.2454C935.741 6.11715 927.121 2.54827 922.082 7.5901ZM860.473 75.4416C858.669 75.4416 857.206 73.9813 857.206 72.1703C857.206 70.3593 858.669 68.899 860.473 68.899C862.276 68.899 863.74 70.3593 863.74 72.1703C863.74 73.9813 862.276 75.4416 860.473 75.4416ZM901.807 75.4416C900.003 75.4416 898.54 73.9813 898.54 72.1703C898.54 70.3593 900.003 68.899 901.807 68.899C903.61 68.899 905.074 70.3593 905.074 72.1703C905.074 73.9813 903.61 75.4416 901.807 75.4416Z" fill="url(#paint1_linear_873_49)" stroke="#141D36" stroke-width="10"/>
<path d="M760.01 70.6924L881.008 129.795V248L760.01 188.898V70.6924Z" fill="#FF7325" stroke="#141D36" stroke-width="10" stroke-linejoin="round"/>
<path d="M1002 70.6924L881 129.795V248L1002 188.898V70.6924Z" fill="#D34C00" stroke="#141D36" stroke-width="10" stroke-linejoin="round"/>
<path d="M31.92 90.24H3C3 80.08 7.6 75 16.8 75H78.36C78.36 85.16 73.76 90.24 64.56 90.24H49.56V147.36C49.56 151.52 48.04 154.68 45 156.84C42.04 159 37.68 160.08 31.92 160.08V90.24ZM106.034 112.08C101.234 112.08 97.3541 113.32 94.3941 115.8C91.4341 118.28 89.9541 121.4 89.9541 125.16V150.48C89.9541 153.92 88.5941 156.4 85.8741 157.92C83.2341 159.36 79.1141 160.08 73.5141 160.08V110.4C73.5141 106.4 74.8341 103.32 77.4741 101.16C80.1141 99 84.0341 97.92 89.2341 97.92V105C88.0341 106.28 87.0341 107.64 86.2341 109.08L87.0741 109.56C92.1141 101.8 98.3941 97.92 105.914 97.92C109.514 97.92 112.234 98.88 114.074 100.8C115.914 102.72 116.834 105.16 116.834 108.12C116.834 110.36 116.234 112.32 115.034 114C112.794 112.72 109.794 112.08 106.034 112.08ZM147.972 160.08C143.012 160.08 138.412 159.08 134.172 157.08C130.012 155.08 126.692 152.36 124.212 148.92C121.732 145.48 120.492 141.64 120.492 137.4V122.04C120.492 117.56 121.732 113.48 124.212 109.8C126.772 106.04 130.172 103.12 134.412 101.04C138.652 98.96 143.212 97.92 148.092 97.92C152.892 97.92 157.292 98.92 161.292 100.92C165.372 102.84 168.572 105.6 170.892 109.2C173.212 112.72 174.372 116.72 174.372 121.2V127.68C174.372 129.6 173.652 131.24 172.212 132.6C170.772 133.88 168.932 134.52 166.692 134.52H136.452V136.2C136.452 139.4 137.412 142.04 139.332 144.12C141.332 146.12 144.252 147.12 148.092 147.12C151.852 147.12 154.612 146.32 156.372 144.72C158.132 143.04 159.012 140.96 159.012 138.48C160.612 138.32 161.812 138.24 162.612 138.24C165.892 138.24 168.412 138.92 170.172 140.28C171.932 141.64 172.812 143.64 172.812 146.28C172.812 148.44 171.732 150.6 169.572 152.76C167.412 154.92 164.412 156.68 160.572 158.04C156.812 159.4 152.612 160.08 147.972 160.08ZM159.492 122.88V121.2C159.492 118 158.412 115.48 156.252 113.64C154.172 111.72 151.412 110.76 147.972 110.76C144.532 110.76 141.732 111.72 139.572 113.64C137.492 115.48 136.452 118 136.452 121.2V122.88H159.492ZM185.194 110.4C185.194 106.4 186.514 103.32 189.154 101.16C191.794 99 195.714 97.92 200.914 97.92V105C199.714 106.28 198.714 107.64 197.914 109.08L198.754 109.56C201.154 105.88 204.194 103.04 207.874 101.04C211.634 98.96 215.794 97.92 220.354 97.92C224.354 97.92 227.874 98.84 230.914 100.68C234.034 102.52 236.474 105.08 238.234 108.36C239.994 111.56 240.874 115.16 240.874 119.16V150.48C240.874 153.92 239.514 156.4 236.794 157.92C234.074 159.36 229.954 160.08 224.434 160.08V121.68C224.434 118.96 223.554 116.68 221.794 114.84C220.114 113 217.714 112.08 214.594 112.08C210.754 112.08 207.634 113.32 205.234 115.8C202.834 118.28 201.634 121.4 201.634 125.16V150.48C201.634 153.92 200.274 156.4 197.554 157.92C194.914 159.36 190.794 160.08 185.194 160.08V110.4ZM275.594 160.08C271.354 160.08 267.514 159.16 264.074 157.32C260.634 155.4 257.914 152.8 255.914 149.52C253.914 146.16 252.914 142.4 252.914 138.24V119.76C252.914 115.6 253.954 111.88 256.034 108.6C258.194 105.24 261.154 102.64 264.914 100.8C268.674 98.88 272.834 97.92 277.394 97.92C280.114 97.92 283.034 98.48 286.154 99.6C289.354 100.72 291.994 102.28 294.074 104.28L294.554 103.68C294.154 103.04 293.274 102.24 291.914 101.28V84.72C291.914 81.36 293.274 78.72 295.994 76.8C298.794 74.88 302.994 73.92 308.594 73.92V149.16C308.594 152.28 307.354 154.88 304.874 156.96C302.394 159.04 298.594 160.08 293.474 160.08V153.6C294.434 152.4 295.194 151.32 295.754 150.36L295.154 149.88C292.594 153.32 289.834 155.88 286.874 157.56C283.994 159.24 280.234 160.08 275.594 160.08ZM280.754 145.92C284.114 145.92 286.834 145.16 288.914 143.64C291.074 142.04 292.154 140.04 292.154 137.64V120.36C292.154 118.04 291.074 116.08 288.914 114.48C286.834 112.88 284.114 112.08 280.754 112.08C277.074 112.08 274.234 112.84 272.234 114.36C270.314 115.88 269.354 118.04 269.354 120.84V137.04C269.354 139.92 270.314 142.12 272.234 143.64C274.234 145.16 277.074 145.92 280.754 145.92ZM332.514 93.36C329.474 93.36 326.914 92.48 324.834 90.72C322.834 88.88 321.834 86.52 321.834 83.64C321.834 80.76 322.834 78.44 324.834 76.68C326.914 74.84 329.474 73.92 332.514 73.92C335.554 73.92 338.074 74.84 340.074 76.68C342.154 78.44 343.194 80.76 343.194 83.64C343.194 86.52 342.154 88.88 340.074 90.72C338.074 92.48 335.554 93.36 332.514 93.36ZM324.234 107.52C324.234 104.08 325.594 101.64 328.314 100.2C331.034 98.68 335.154 97.92 340.674 97.92V150.48C340.674 153.92 339.314 156.4 336.594 157.92C333.874 159.36 329.754 160.08 324.234 160.08V107.52ZM356.405 110.4C356.405 106.4 357.725 103.32 360.365 101.16C363.005 99 366.925 97.92 372.125 97.92V105C370.925 106.28 369.925 107.64 369.125 109.08L369.965 109.56C372.365 105.88 375.405 103.04 379.085 101.04C382.845 98.96 387.005 97.92 391.565 97.92C395.565 97.92 399.085 98.84 402.125 100.68C405.245 102.52 407.685 105.08 409.445 108.36C411.205 111.56 412.085 115.16 412.085 119.16V150.48C412.085 153.92 410.725 156.4 408.005 157.92C405.285 159.36 401.165 160.08 395.645 160.08V121.68C395.645 118.96 394.765 116.68 393.005 114.84C391.325 113 388.925 112.08 385.805 112.08C381.965 112.08 378.845 113.32 376.445 115.8C374.045 118.28 372.845 121.4 372.845 125.16V150.48C372.845 153.92 371.485 156.4 368.765 157.92C366.125 159.36 362.005 160.08 356.405 160.08V110.4ZM449.805 184.08C444.925 184.08 440.605 183.4 436.845 182.04C433.085 180.76 430.165 179 428.085 176.76C426.085 174.52 425.085 172.04 425.085 169.32C425.085 166.44 426.085 164.4 428.085 163.2C430.165 162 433.085 161.4 436.845 161.4C437.645 167.88 441.965 171.12 449.805 171.12C454.285 171.12 457.405 170 459.165 167.76C461.005 165.6 461.925 162.56 461.925 158.64V155.52C463.285 154.56 464.165 153.76 464.565 153.12L464.085 152.52C462.005 154.52 459.205 156.08 455.685 157.2C452.245 158.32 449.125 158.88 446.325 158.88C441.925 158.88 437.925 157.96 434.325 156.12C430.805 154.28 428.005 151.72 425.925 148.44C423.925 145.08 422.925 141.32 422.925 137.16V119.76C422.925 115.76 423.965 112.12 426.045 108.84C428.205 105.48 431.045 102.84 434.565 100.92C438.085 98.92 441.765 97.92 445.605 97.92C450.005 97.92 453.725 98.8 456.765 100.56C459.885 102.24 462.685 104.76 465.165 108.12L465.765 107.64C465.365 106.92 464.605 105.88 463.485 104.52C463.485 100.12 468.525 97.92 478.605 97.92V156.12C478.605 161.48 477.365 166.28 474.885 170.52C472.405 174.84 468.965 178.16 464.565 180.48C460.165 182.88 455.245 184.08 449.805 184.08ZM450.765 144.84C454.125 144.84 456.885 144.04 459.045 142.44C461.205 140.76 462.285 138.76 462.285 136.44V120.36C462.285 117.96 461.205 115.96 459.045 114.36C456.885 112.76 454.125 111.96 450.765 111.96C447.085 111.96 444.245 112.76 442.245 114.36C440.325 115.88 439.365 118.08 439.365 120.96V135.96C439.365 138.76 440.325 140.96 442.245 142.56C444.165 144.08 447.005 144.84 450.765 144.84ZM530.988 159C528.588 159 526.508 158.24 524.748 156.72C522.988 155.12 522.108 153.2 522.108 150.96V83.04C522.108 80.8 522.948 78.92 524.628 77.4C526.388 75.8 528.508 75 530.988 75H562.788C570.788 75 577.148 77.16 581.868 81.48C586.668 85.8 589.068 91.6 589.068 98.88C589.068 102.16 588.148 105.32 586.308 108.36C584.548 111.32 582.188 113.68 579.228 115.44V115.92C583.308 117.36 586.548 119.72 588.948 123C591.348 126.28 592.548 129.92 592.548 133.92C592.548 138.8 591.388 143.16 589.068 147C586.748 150.76 583.508 153.72 579.348 155.88C575.188 157.96 570.428 159 565.068 159H530.988ZM562.548 109.68C565.028 109.68 567.108 108.72 568.788 106.8C570.548 104.8 571.428 102.4 571.428 99.6C571.428 96.56 570.628 94.2 569.028 92.52C567.428 90.76 565.268 89.88 562.548 89.88H539.268V109.68H562.548ZM564.948 144.12C567.988 144.12 570.388 143.24 572.148 141.48C573.988 139.64 574.908 137.2 574.908 134.16C574.908 131.04 574.028 128.64 572.268 126.96C570.508 125.2 568.068 124.32 564.948 124.32H539.268V144.12H564.948ZM626.192 160.08C620.912 160.08 616.112 159.12 611.792 157.2C607.472 155.28 604.072 152.64 601.592 149.28C599.112 145.84 597.872 141.96 597.872 137.64V121.68C597.872 117.28 599.072 113.28 601.472 109.68C603.872 106 607.232 103.12 611.552 101.04C615.872 98.96 620.752 97.92 626.192 97.92C631.632 97.92 636.512 98.96 640.832 101.04C645.152 103.12 648.512 106 650.912 109.68C653.312 113.28 654.512 117.28 654.512 121.68V137.64C654.512 141.96 653.272 145.84 650.792 149.28C648.312 152.64 644.912 155.28 640.592 157.2C636.272 159.12 631.472 160.08 626.192 160.08ZM626.192 145.92C629.952 145.92 632.872 145.08 634.952 143.4C637.032 141.72 638.072 139.4 638.072 136.44V122.52C638.072 119.4 636.992 116.88 634.832 114.96C632.752 113.04 629.872 112.08 626.192 112.08C622.512 112.08 619.592 113.04 617.432 114.96C615.352 116.88 614.312 119.4 614.312 122.52V136.44C614.312 139.4 615.352 141.72 617.432 143.4C619.512 145.08 622.432 145.92 626.192 145.92ZM665.708 160.08C664.028 160.08 662.308 159.8 660.548 159.24C658.788 158.76 657.388 157.96 656.348 156.84L677.228 128.16L658.148 100.32C658.788 99.6 660.028 99.04 661.868 98.64C663.708 98.16 665.348 97.92 666.788 97.92C671.428 97.92 674.548 99.2 676.148 101.76L685.988 117.6L683.468 121.08L684.428 121.8L697.388 101.76C699.068 99.2 702.388 97.92 707.348 97.92C708.788 97.92 710.308 98.16 711.908 98.64C713.588 99.04 714.748 99.6 715.388 100.32L696.188 128.16L717.188 156.84C716.148 157.96 714.828 158.76 713.228 159.24C711.628 159.8 710.028 160.08 708.428 160.08C706.668 160.08 704.908 159.76 703.148 159.12C701.468 158.48 700.268 157.68 699.548 156.72L686.708 137.64L673.988 156.72C673.268 157.76 672.148 158.56 670.628 159.12C669.108 159.76 667.468 160.08 665.708 160.08Z" fill="white"/>
<defs>
<linearGradient id="paint0_linear_873_49" x1="880.998" y1="11.5889" x2="881" y2="173.108" gradientUnits="userSpaceOnUse">
<stop stop-color="#141D36"/>
<stop offset="1"/>
</linearGradient>
<linearGradient id="paint1_linear_873_49" x1="881.001" y1="42.9159" x2="881.001" y2="174.639" gradientUnits="userSpaceOnUse">
<stop stop-color="white"/>
<stop offset="0.215596" stop-color="white"/>
<stop offset="1" stop-color="#141D36"/>
</linearGradient>
</defs>
</svg>
